# xmcd CD database file
#
# Track frame offsets:
#	150
#	11046
#	24825
#	38333
#	52008
#	65698
#	77767
#	92038
#	104442
#	117826
#	130826
#	145584
#	156178
#	169187
#	182372
#	195298
#	208440
#	221168
#
# Disc length: 3143 seconds
#
# Revision: 0
# Processed by: cddbd v1.5.2PL0 Copyright (c) Steve Scherf et al.
# Submitted via: CDex 1.51
#
DISCID=f30c4512
DTITLE=Django Reinhardt - Kind Of Reinhardt [CD9) - Some Of These Days
DYEAR=2009
DGENRE=Jazz
TTITLE0=Some Of These Days (Brooks)
TTITLE1=Swanee River (Foster)
TTITLE2=Chasing Shadws (Davis/Silver)
TTITLE3=Them There Eyes (Pinkard/Trauber/Tracey)
TTITLE4=I Wonder Where My Baby Is Tonight (Kahn/Donaldson)
TTITLE5=Oriental Shuffle (Grappelli/Reinhardt)
TTITLE6=Solitude (Ellington)
TTITLE7=Sweet Chorus (Grappelli/Reinhardt)
TTITLE8=HCQ Strut (Grappelli/Reinhardt)
TTITLE9=Three Little Words (Ruby/Kalmar)
TTITLE10=Blue Moon (Rodgers/Hart)
TTITLE11=Mystery Pacific (Grappelli/Reinhardt)
TTITLE12=Blue Drag (Reinhardt)
TTITLE13=My Sweet (Grappelli/Reinhardt)
TTITLE14=Smoke Rings (Gifford/Washington)
TTITLE15=Sunshine Of Your Smile (Cookie/Ray)
TTITLE16=Nocturne (Grappelli/Reinhardt)
TTITLE17=Clouds (Donaldson/Kahn)
EXTD=YEAR: 2009
EXTT0=
EXTT1=
EXTT2=
EXTT3=
EXTT4=
EXTT5=
EXTT6=
EXTT7=
EXTT8=
EXTT9=
EXTT10=
EXTT11=
EXTT12=
EXTT13=
EXTT14=
EXTT15=
EXTT16=
EXTT17=
PLAYORDER=
